<svg width="162" height="31" viewBox="0 0 162 31" fill="none" xmlns="http://www.w3.org/2000/svg">
<path d="M9.8125 16.2812H4.15625V12.0469H9.8125C10.5833 12.0469 11.2083 11.9167 11.6875 11.6562C12.1667 11.3958 12.5156 11.0365 12.7344 10.5781C12.9635 10.1094 13.0781 9.58333 13.0781 9C13.0781 8.375 12.9635 7.79688 12.7344 7.26562C12.5156 6.73438 12.1667 6.30729 11.6875 5.98438C11.2083 5.65104 10.5833 5.48438 9.8125 5.48438H6.21875V24H0.734375V1.25H9.8125C11.6354 1.25 13.2031 1.58333 14.5156 2.25C15.8385 2.91667 16.8542 3.83333 17.5625 5C18.2708 6.15625 18.625 7.47917 18.625 8.96875C18.625 10.4375 18.2708 11.7188 17.5625 12.8125C16.8542 13.9062 15.8385 14.7604 14.5156 15.375C13.2031 15.9792 11.6354 16.2812 9.8125 16.2812ZM29.9219 19.75V12.7812C29.9219 12.3021 29.8542 11.8906 29.7188 11.5469C29.5833 11.2031 29.3698 10.9375 29.0781 10.75C28.7865 10.5521 28.3958 10.4531 27.9062 10.4531C27.5104 10.4531 27.1719 10.5208 26.8906 10.6562C26.6094 10.7917 26.3958 10.9948 26.25 11.2656C26.1042 11.5365 26.0312 11.8802 26.0312 12.2969H20.7656C20.7656 11.5156 20.9375 10.7917 21.2812 10.125C21.6354 9.44792 22.1354 8.85938 22.7812 8.35938C23.4375 7.85938 24.2188 7.47396 25.125 7.20312C26.0417 6.92188 27.0625 6.78125 28.1875 6.78125C29.5312 6.78125 30.7292 7.00521 31.7812 7.45312C32.8438 7.90104 33.6823 8.57292 34.2969 9.46875C34.9115 10.3542 35.2188 11.4688 35.2188 12.8125V19.7344C35.2188 20.8385 35.2812 21.6771 35.4062 22.25C35.5312 22.8125 35.7083 23.3073 35.9375 23.7344V24H30.6562C30.4062 23.4792 30.2188 22.8438 30.0938 22.0938C29.9792 21.3333 29.9219 20.5521 29.9219 19.75ZM30.5625 13.6719L30.5938 16.4844H28.2656C27.776 16.4844 27.3594 16.5521 27.0156 16.6875C26.6823 16.8229 26.4115 17.0104 26.2031 17.25C26.0052 17.4792 25.8594 17.7396 25.7656 18.0312C25.6823 18.3229 25.6406 18.6302 25.6406 18.9531C25.6406 19.2656 25.7135 19.5469 25.8594 19.7969C26.0156 20.0365 26.224 20.224 26.4844 20.3594C26.7448 20.4948 27.0365 20.5625 27.3594 20.5625C27.9427 20.5625 28.4375 20.4531 28.8438 20.2344C29.2604 20.0052 29.5781 19.7292 29.7969 19.4062C30.0156 19.0833 30.125 18.7812 30.125 18.5L31.2812 20.6562C31.0729 21.0729 30.8333 21.4948 30.5625 21.9219C30.3021 22.349 29.974 22.7448 29.5781 23.1094C29.1927 23.4635 28.7188 23.7552 28.1562 23.9844C27.5938 24.2031 26.9115 24.3125 26.1094 24.3125C25.0677 24.3125 24.1094 24.099 23.2344 23.6719C22.3698 23.2448 21.6771 22.651 21.1562 21.8906C20.6354 21.1198 20.375 20.2344 20.375 19.2344C20.375 18.3594 20.5312 17.5781 20.8438 16.8906C21.1667 16.2031 21.651 15.6198 22.2969 15.1406C22.9427 14.6615 23.7656 14.2969 24.7656 14.0469C25.7656 13.7969 26.9427 13.6719 28.2969 13.6719H30.5625ZM43.0781 22.0156L47.4531 7.09375H53.1094L46.3125 26.5156C46.1667 26.9427 45.974 27.401 45.7344 27.8906C45.4948 28.3906 45.1667 28.8646 44.75 29.3125C44.3333 29.7604 43.7969 30.125 43.1406 30.4062C42.4948 30.6875 41.6927 30.8281 40.7344 30.8281C40.224 30.8281 39.849 30.8021 39.6094 30.75C39.3802 30.7083 39.026 30.6302 38.5469 30.5156V26.75C38.6823 26.75 38.7969 26.75 38.8906 26.75C38.9948 26.75 39.1094 26.75 39.2344 26.75C39.7969 26.75 40.2448 26.6927 40.5781 26.5781C40.9219 26.4635 41.1823 26.2969 41.3594 26.0781C41.5469 25.8594 41.6927 25.5938 41.7969 25.2812L43.0781 22.0156ZM41.9688 7.09375L45.2969 18.9219L45.875 24.5H42.3438L36.3281 7.09375H41.9688Z" fill="#153250"/>
<path d="M56.0909 24V0.727272H69.5568V2.63636H58.2159V11.3977H68.5V13.3068H58.2159V24H56.0909ZM74.233 24V6.54545H76.1989V9.22727H76.3466C76.6951 8.34848 77.3011 7.64015 78.1648 7.10227C79.036 6.55682 80.0208 6.28409 81.1193 6.28409C81.286 6.28409 81.4716 6.28788 81.6761 6.29545C81.8807 6.30303 82.0511 6.31061 82.1875 6.31818V8.375C82.0966 8.35985 81.9375 8.33712 81.7102 8.30682C81.483 8.27651 81.2367 8.26136 80.9716 8.26136C80.0625 8.26136 79.2519 8.45455 78.5398 8.84091C77.8352 9.2197 77.2784 9.74621 76.8693 10.4205C76.4602 11.0947 76.2557 11.8636 76.2557 12.7273V24H74.233ZM85.6619 24V6.54545H87.696V24H85.6619ZM86.696 3.54545C86.2794 3.54545 85.9233 3.4053 85.6278 3.125C85.3324 2.83712 85.1847 2.49242 85.1847 2.09091C85.1847 1.68939 85.3324 1.34848 85.6278 1.06818C85.9233 0.780302 86.2794 0.636362 86.696 0.636362C87.1127 0.636362 87.4688 0.780302 87.7642 1.06818C88.0597 1.34848 88.2074 1.68939 88.2074 2.09091C88.2074 2.49242 88.0597 2.83712 87.7642 3.125C87.4688 3.4053 87.1127 3.54545 86.696 3.54545ZM100.102 24.3636C98.4735 24.3636 97.0644 23.9848 95.875 23.2273C94.6856 22.4621 93.7652 21.4053 93.1136 20.0568C92.4697 18.7008 92.1477 17.1402 92.1477 15.375C92.1477 13.6174 92.4697 12.0568 93.1136 10.6932C93.7652 9.32197 94.6629 8.25 95.8068 7.47727C96.9583 6.69697 98.2879 6.30682 99.7955 6.30682C100.742 6.30682 101.655 6.48106 102.534 6.82954C103.413 7.17045 104.201 7.69697 104.898 8.40909C105.602 9.11364 106.159 10.0038 106.568 11.0795C106.977 12.1477 107.182 13.4129 107.182 14.875V15.875H93.5455V14.0909H105.114C105.114 12.9697 104.886 11.9621 104.432 11.0682C103.985 10.1667 103.36 9.45455 102.557 8.93182C101.761 8.40909 100.841 8.14773 99.7955 8.14773C98.6894 8.14773 97.7159 8.44318 96.875 9.03409C96.0341 9.625 95.375 10.4053 94.8977 11.375C94.428 12.3447 94.1894 13.4053 94.1818 14.5568V15.625C94.1818 17.0114 94.4205 18.2235 94.8977 19.2614C95.3826 20.2917 96.0682 21.0909 96.9545 21.6591C97.8409 22.2273 98.8902 22.5114 100.102 22.5114C100.928 22.5114 101.652 22.3826 102.273 22.125C102.902 21.8674 103.428 21.5227 103.852 21.0909C104.284 20.6515 104.61 20.1705 104.83 19.6477L106.75 20.2727C106.485 21.0076 106.049 21.6856 105.443 22.3068C104.845 22.928 104.095 23.428 103.193 23.8068C102.299 24.178 101.269 24.3636 100.102 24.3636ZM113.662 13.0909V24H111.639V6.54545H113.605V9.28409H113.787C114.196 8.39015 114.832 7.67424 115.696 7.13636C116.567 6.59091 117.643 6.31818 118.923 6.31818C120.098 6.31818 121.128 6.56439 122.014 7.05682C122.908 7.54167 123.601 8.25758 124.094 9.20455C124.594 10.1515 124.844 11.3144 124.844 12.6932V24H122.821V12.8182C122.821 11.3864 122.42 10.2538 121.616 9.42045C120.821 8.58712 119.753 8.17045 118.412 8.17045C117.495 8.17045 116.681 8.36742 115.969 8.76136C115.257 9.1553 114.692 9.72348 114.276 10.4659C113.866 11.2008 113.662 12.0758 113.662 13.0909ZM136.455 24.3636C135.023 24.3636 133.769 23.9848 132.693 23.2273C131.617 22.4697 130.777 21.4129 130.17 20.0568C129.572 18.7008 129.273 17.1212 129.273 15.3182C129.273 13.5227 129.572 11.9508 130.17 10.6023C130.777 9.24621 131.621 8.19318 132.705 7.44318C133.788 6.68561 135.049 6.30682 136.489 6.30682C137.549 6.30682 138.432 6.49621 139.136 6.875C139.841 7.24621 140.405 7.70833 140.83 8.26136C141.254 8.81439 141.583 9.35227 141.818 9.875H142V0.727272H144.034V24H142.057V20.7614H141.818C141.583 21.2917 141.25 21.8371 140.818 22.3977C140.386 22.9508 139.814 23.4167 139.102 23.7955C138.398 24.1742 137.515 24.3636 136.455 24.3636ZM136.693 22.5114C137.822 22.5114 138.784 22.2045 139.58 21.5909C140.375 20.9697 140.981 20.1174 141.398 19.0341C141.822 17.9432 142.034 16.6932 142.034 15.2841C142.034 13.8902 141.826 12.6591 141.409 11.5909C140.992 10.5152 140.386 9.67424 139.591 9.06818C138.795 8.45455 137.83 8.14773 136.693 8.14773C135.527 8.14773 134.542 8.46591 133.739 9.10227C132.943 9.73106 132.337 10.5833 131.92 11.6591C131.511 12.7348 131.307 13.9432 131.307 15.2841C131.307 16.6402 131.515 17.8636 131.932 18.9545C132.348 20.0455 132.955 20.9129 133.75 21.5568C134.553 22.1932 135.534 22.5114 136.693 22.5114ZM161.523 10.375L159.67 10.8977C159.489 10.375 159.231 9.90151 158.898 9.47727C158.564 9.05303 158.129 8.71591 157.591 8.46591C157.061 8.21591 156.402 8.09091 155.614 8.09091C154.432 8.09091 153.462 8.37121 152.705 8.93182C151.947 9.49242 151.568 10.2159 151.568 11.1023C151.568 11.8523 151.826 12.4621 152.341 12.9318C152.864 13.3939 153.667 13.7614 154.75 14.0341L157.386 14.6818C158.848 15.0379 159.943 15.6023 160.67 16.375C161.405 17.1477 161.773 18.1174 161.773 19.2841C161.773 20.2689 161.5 21.1439 160.955 21.9091C160.409 22.6742 159.648 23.2765 158.67 23.7159C157.701 24.1477 156.576 24.3636 155.295 24.3636C153.591 24.3636 152.186 23.9811 151.08 23.2159C149.973 22.4432 149.265 21.3295 148.955 19.875L150.898 19.3977C151.148 20.4356 151.636 21.2197 152.364 21.75C153.098 22.2803 154.064 22.5455 155.261 22.5455C156.602 22.5455 157.674 22.2462 158.477 21.6477C159.28 21.0417 159.682 20.2841 159.682 19.375C159.682 18.6705 159.447 18.0795 158.977 17.6023C158.508 17.1174 157.795 16.7614 156.841 16.5341L153.989 15.8523C152.473 15.4886 151.352 14.9129 150.625 14.125C149.898 13.3371 149.534 12.3598 149.534 11.1932C149.534 10.2311 149.795 9.38636 150.318 8.65909C150.841 7.92424 151.561 7.34848 152.477 6.93182C153.394 6.51515 154.439 6.30682 155.614 6.30682C157.212 6.30682 158.489 6.67045 159.443 7.39773C160.405 8.11742 161.098 9.10985 161.523 10.375Z" fill="#8CB1F5"/>
</svg>
